<?xml version="1.0" encoding="utf-8"?>
<!-- Generator: Adobe Illustrator 19.1.1, SVG Export Plug-In . SVG Version: 6.00 Build 0)  -->
<svg version="1.1" id="Слой_1" xmlns="http://www.w3.org/2000/svg" xmlns:xlink="http://www.w3.org/1999/xlink" x="0px" y="0px"
	 viewBox="0 0 31.5 29.7" style="enable-background:new 0 0 31.5 29.7;" xml:space="preserve">
<style type="text/css">
	.st0{fill:#FFFFFF;}
</style>
<path class="st0" d="M15.8,3L19,9.5c0.4,0.9,1.3,1.5,2.2,1.6l7.3,1.1l-5.3,5.1c-0.7,0.7-1,1.6-0.9,2.6l1.3,7.2l-6.6-3.4
	c-0.4-0.2-0.9-0.3-1.4-0.3c-0.5,0-1,0.1-1.4,0.3l-6.6,3.4l1.3-7.2c0.2-1-0.2-1.9-0.9-2.6l-5.3-5.1l7.3-1.1c1-0.1,1.8-0.7,2.2-1.6
	L15.8,3 M15.8,0c-0.4,0-0.8,0.2-1,0.6l-4,8.1C10.6,9,10.3,9.2,10,9.3l-9,1.3c-0.9,0.1-1.2,1.2-0.6,1.8l6.5,6.3
	c0.2,0.2,0.4,0.6,0.3,0.9l-1.5,8.9c-0.1,0.7,0.4,1.2,1,1.2c0.2,0,0.3,0,0.5-0.1l8.1-4.2c0.2-0.1,0.3-0.1,0.5-0.1
	c0.2,0,0.3,0,0.5,0.1l8.1,4.2c0.2,0.1,0.3,0.1,0.5,0.1c0.6,0,1.2-0.5,1-1.2l-1.5-8.9c-0.1-0.3,0.1-0.7,0.3-0.9l6.5-6.3
	c0.6-0.6,0.3-1.7-0.6-1.8l-9-1.3c-0.3,0-0.6-0.3-0.8-0.6l-4-8.1C16.5,0.2,16.1,0,15.8,0L15.8,0z"/>
</svg>
