<?xml version="1.0" encoding="utf-8"?>
<!-- Generator: Adobe Illustrator 19.1.1, SVG Export Plug-In . SVG Version: 6.00 Build 0)  -->
<svg version="1.1" id="Слой_1" xmlns="http://www.w3.org/2000/svg" xmlns:xlink="http://www.w3.org/1999/xlink" x="0px" y="0px"
	 viewBox="0 0 46.3 53" style="enable-background:new 0 0 46.3 53;" xml:space="preserve">
<style type="text/css">
	.st0{fill:#0570FF;}
</style>
<g>
	<g>
		<path class="st0" d="M8.4,0H4.9v21.7h3.5V0z M4.9,53h3.5V40.3H4.9V53z M6.6,23.7C3,23.7,0,26.7,0,30.3c0,3.6,3,6.6,6.6,6.6
			c3.6,0,6.6-2.9,6.6-6.6C13.2,26.7,10.2,23.7,6.6,23.7z M6.6,33.4c-1.7,0-3.1-1.4-3.1-3.1c0-1.7,1.4-3.1,3.1-3.1
			c1.7,0,3.1,1.4,3.1,3.1C9.7,32,8.3,33.4,6.6,33.4z M25,0h-3.5v3.3H25V0z M21.4,53H25V21.7h-3.5V53z M23.1,5.9
			c-3.6,0-6.6,2.9-6.6,6.6c0,3.6,3,6.6,6.6,6.6c3.6,0,6.6-2.9,6.6-6.6C29.7,8.8,26.8,5.9,23.1,5.9z M23.1,15.5
			c-1.7,0-3.1-1.4-3.1-3.1c0-1.7,1.4-3.1,3.1-3.1c1.7,0,3.1,1.4,3.1,3.1C26.2,14.1,24.8,15.5,23.1,15.5z M38,53h3.5V31.3H38V53z
			 M41.5,0H38v12.7h3.5V0z M39.7,16.1c-3.6,0-6.6,2.9-6.6,6.6c0,3.6,3,6.6,6.6,6.6c3.6,0,6.6-2.9,6.6-6.6
			C46.3,19.1,43.3,16.1,39.7,16.1z M39.7,25.8c-1.7,0-3.1-1.4-3.1-3.1c0-1.7,1.4-3.1,3.1-3.1c1.7,0,3.1,1.4,3.1,3.1
			C42.8,24.4,41.4,25.8,39.7,25.8z"/>
	</g>
</g>
</svg>
