<?xml version="1.0" encoding="utf-8"?>
<!-- Generator: Adobe Illustrator 19.1.1, SVG Export Plug-In . SVG Version: 6.00 Build 0)  -->
<svg version="1.1" id="Слой_1" xmlns="http://www.w3.org/2000/svg" xmlns:xlink="http://www.w3.org/1999/xlink" x="0px" y="0px"
	 viewBox="0 0 45.8 52.3" style="enable-background:new 0 0 45.8 52.3;" xml:space="preserve">
<style type="text/css">
	.st0{fill:#0570FF;}
</style>
<g>
	<g>
		<path class="st0" d="M12.2,13.3c-1.9-0.8-4.2,0.1-5,2c-0.8,1.9,0.1,4.1,2,5c1.9,0.8,4.2-0.1,5-2C15.1,16.4,14.2,14.1,12.2,13.3z
			 M26,41.9l-7.8-19c0.6-0.7,1.1-1.5,1.5-2.4c0.4-1,0.6-2,0.7-3l12.5-5.1l0.2,0.2H36v8.4h-2.9v1.2l-2.4,2.4v2.5l3.9,3.9l2.5-2.5
			l-2.6-2.6l1.4-1.4h4l1.4,1.4l-2.6,2.6l2.5,2.5l3.9-3.9v-2.5l-2.4-2.4v-1.2h-2.9v-8.4h2.9l1.7-1.7V1.7L42.4,0h-9.2l-1.7,1.7v1.2
			L16.4,9.1c-0.6-0.4-1.3-0.8-2-1.1c-2.4-1-5-1-7.4,0c-2.4,1-4.2,2.8-5.2,5.2C-0.2,18,2.1,23.7,7,25.7c0.8,0.3,1.6,0.5,2.4,0.6
			l6.4,15.6H0v10.3h45.8V41.9H26z M34.9,3.5h5.8v5.7h-5.8V3.5z M31.3,6.7l0,0.1v2.5L20,14c-0.2-0.8-0.6-1.5-1-2.2L31.3,6.7z
			 M8.4,22.5c-3.1-1.3-4.6-4.9-3.3-8.1c0.6-1.5,1.8-2.7,3.3-3.3c0.8-0.3,1.6-0.5,2.3-0.5c0.8,0,1.6,0.2,2.4,0.5
			c3.1,1.3,4.6,4.9,3.3,8.1C15.1,22.3,11.5,23.8,8.4,22.5z M13.1,26.1c0.8-0.2,1.6-0.5,2.3-0.9l6.9,16.7h-2.6L13.1,26.1z M42.3,48.8
			H3.5v-3.4h38.9V48.8z"/>
	</g>
</g>
</svg>
