<?xml version="1.0" encoding="utf-8"?>
<!-- Generator: Adobe Illustrator 19.1.1, SVG Export Plug-In . SVG Version: 6.00 Build 0)  -->
<svg version="1.1" id="Слой_1" xmlns="http://www.w3.org/2000/svg" xmlns:xlink="http://www.w3.org/1999/xlink" x="0px" y="0px"
	 viewBox="0 0 31 31" style="enable-background:new 0 0 31 31;" xml:space="preserve">
<style type="text/css">
	.st0{fill:#FFFFFF;}
</style>
<g>
	<g>
		<path class="st0" d="M28,15.5c0-0.8-1.6-1.4-1.7-2.1c-0.2-0.8,1.1-1.9,0.8-2.6c-0.3-0.7-2-0.7-2.4-1.3c-0.4-0.6,0.3-2.2-0.3-2.7
			c-0.2-0.2-0.4-0.2-0.7-0.2c-0.4,0-0.9,0.1-1.3,0.1c-0.3,0-0.5,0-0.7-0.1C20.9,6,21,4.3,20.3,4c-0.1,0-0.2,0-0.2,0
			c-0.7,0-1.6,0.9-2.3,0.9c0,0-0.1,0-0.1,0c-0.7-0.1-1.4-1.7-2.1-1.7c-0.8,0-1.4,1.6-2.1,1.7c0,0-0.1,0-0.1,0C12.6,4.8,11.6,4,11,4
			c-0.1,0-0.2,0-0.2,0C10,4.3,10.1,6,9.4,6.4C9.3,6.5,9,6.6,8.8,6.6c-0.4,0-0.9-0.1-1.3-0.1c-0.3,0-0.6,0-0.7,0.2
			C6.2,7.2,6.9,8.8,6.4,9.4C6,10.1,4.3,10,4,10.7c-0.3,0.7,0.9,1.9,0.8,2.6c-0.1,0.7-1.7,1.4-1.7,2.1c0,0.8,1.6,1.4,1.7,2.1
			C5,18.4,3.7,19.6,4,20.3c0.3,0.7,2,0.7,2.4,1.3c0.4,0.6-0.3,2.2,0.3,2.7c0.2,0.2,0.4,0.2,0.7,0.2c0.4,0,0.9-0.1,1.3-0.1
			c0.3,0,0.5,0,0.7,0.1c0.6,0.4,0.6,2.1,1.3,2.4c0.1,0,0.2,0,0.2,0c0.7,0,1.6-0.9,2.3-0.9c0,0,0.1,0,0.1,0c0.7,0.1,1.4,1.7,2.1,1.7
			c0.8,0,1.4-1.6,2.1-1.7c0,0,0.1,0,0.1,0c0.7,0,1.6,0.9,2.3,0.9c0.1,0,0.2,0,0.2,0c0.7-0.3,0.7-2,1.3-2.4c0.2-0.1,0.4-0.1,0.7-0.1
			c0.4,0,0.9,0.1,1.3,0.1c0.3,0,0.6,0,0.7-0.2c0.5-0.5-0.1-2.1,0.3-2.7c0.4-0.6,2.1-0.6,2.4-1.3c0.3-0.7-0.9-1.9-0.8-2.6
			C26.4,16.9,28,16.3,28,15.5z M24,17.2c-0.1,0.7,0,1.4,0.2,1.9c-0.5,0.2-1.1,0.6-1.5,1.2c-0.4,0.6-0.5,1.3-0.5,1.8
			c-0.7,0-1.3,0.2-1.8,0.5c-0.6,0.4-1,1-1.2,1.5c-0.4-0.2-0.8-0.3-1.3-0.3c-0.2,0-0.4,0-0.6,0.1c-0.7,0.1-1.3,0.5-1.7,0.9
			c-0.4-0.4-1-0.8-1.7-0.9c-0.2,0-0.4-0.1-0.6-0.1h0c-0.5,0-0.9,0.1-1.3,0.3c-0.2-0.5-0.6-1.1-1.2-1.5c-0.5-0.3-1.1-0.5-1.8-0.5
			c0-0.6-0.1-1.2-0.5-1.8c-0.4-0.6-1-1-1.5-1.2c0.2-0.5,0.4-1.2,0.2-1.9c-0.1-0.7-0.5-1.3-0.9-1.7c0.4-0.4,0.8-1,0.9-1.7
			c0.1-0.7,0-1.4-0.2-1.9c0.5-0.2,1.1-0.6,1.5-1.2c0.4-0.6,0.5-1.3,0.5-1.8c0.7,0,1.3-0.2,1.8-0.5c0.6-0.4,1-1,1.2-1.5
			c0.4,0.2,0.8,0.3,1.3,0.3c0.2,0,0.4,0,0.6-0.1c0.7-0.1,1.3-0.5,1.7-0.9c0.4,0.4,1,0.8,1.7,0.9c0.2,0,0.4,0.1,0.6,0.1
			c0.5,0,0.9-0.1,1.3-0.3c0.2,0.5,0.6,1.1,1.2,1.5c0.5,0.3,1.1,0.5,1.8,0.5c0,0.6,0.1,1.2,0.5,1.8c0.4,0.6,1,1,1.5,1.2
			c-0.2,0.5-0.4,1.2-0.2,1.9c0.1,0.7,0.5,1.3,0.9,1.7C24.5,15.9,24.1,16.5,24,17.2z M15.5,0C6.9,0,0,6.9,0,15.5
			C0,24.1,6.9,31,15.5,31C24.1,31,31,24.1,31,15.5C31,6.9,24.1,0,15.5,0z M15.5,28.7c-7.3,0-13.2-5.9-13.2-13.2
			c0-7.3,5.9-13.2,13.2-13.2c7.3,0,13.2,5.9,13.2,13.2C28.7,22.8,22.8,28.7,15.5,28.7z M15.5,11.6c-2.2,0-3.9,1.8-3.9,3.9
			c0,2.2,1.8,3.9,3.9,3.9c2.2,0,3.9-1.8,3.9-3.9C19.4,13.3,17.7,11.6,15.5,11.6z M15.5,17.1c-0.9,0-1.6-0.7-1.6-1.6
			c0-0.9,0.7-1.6,1.6-1.6c0.9,0,1.6,0.7,1.6,1.6C17.1,16.4,16.4,17.1,15.5,17.1z"/>
	</g>
</g>
</svg>
