<?xml version="1.0" encoding="utf-8"?>
<!-- Generator: Adobe Illustrator 19.1.1, SVG Export Plug-In . SVG Version: 6.00 Build 0)  -->
<svg version="1.1" id="Слой_1" xmlns="http://www.w3.org/2000/svg" xmlns:xlink="http://www.w3.org/1999/xlink" x="0px" y="0px"
	 viewBox="0 0 42.1 48.6" style="enable-background:new 0 0 42.1 48.6;" xml:space="preserve">
<style type="text/css">
	.st0{fill:#0080FF;}
	.st1{opacity:0.2;fill:#0080FF;}
</style>
<path class="st0" d="M32.8,16.2c-0.7-0.3-1.5-0.8-2-1.6c-0.6-0.8-0.7-1.7-0.7-2.5c-1,0-1.8-0.3-2.5-0.7c-0.8-0.6-1.3-1.3-1.6-2
	c-0.5,0.2-1.1,0.4-1.8,0.4c-0.3,0-0.5,0-0.8-0.1c-1-0.2-1.7-0.7-2.3-1.3c-0.6,0.6-1.3,1.1-2.3,1.3c-0.3,0.1-0.5,0.1-0.8,0.1
	c-0.7,0-1.3-0.2-1.8-0.4c-0.3,0.7-0.8,1.5-1.6,2c-0.7,0.5-1.5,0.7-2.5,0.7c0,0.8-0.2,1.7-0.7,2.5c-0.6,0.8-1.3,1.3-2,1.6
	c0.3,0.7,0.5,1.6,0.3,2.6c-0.2,1-0.7,1.7-1.3,2.3c0.6,0.6,1.1,1.3,1.3,2.3c0.2,1,0,1.9-0.3,2.6c0.7,0.3,1.5,0.8,2,1.6
	c0.6,0.8,0.7,1.7,0.7,2.5c1,0,1.8,0.3,2.5,0.7c0.8,0.6,1.3,1.3,1.6,2c0.5-0.2,1.1-0.4,1.8-0.4h0c0.3,0,0.5,0,0.8,0.1
	c1,0.2,1.7,0.7,2.3,1.3c0.6-0.6,1.3-1.1,2.3-1.3c0.3-0.1,0.5-0.1,0.8-0.1c0.7,0,1.3,0.2,1.8,0.4c0.3-0.7,0.8-1.5,1.6-2
	c0.7-0.5,1.5-0.7,2.5-0.7c0-0.8,0.2-1.7,0.7-2.5c0.6-0.8,1.3-1.3,2-1.6c-0.3-0.7-0.5-1.6-0.3-2.6c0.2-1,0.7-1.7,1.3-2.3
	c-0.6-0.6-1.1-1.3-1.3-2.3C32.3,17.8,32.5,16.9,32.8,16.2z M21.1,26.4c-2.9,0-5.3-2.4-5.3-5.3c0-2.9,2.4-5.3,5.3-5.3
	c2.9,0,5.3,2.4,5.3,5.3C26.4,24,24,26.4,21.1,26.4z M21.1,18.9c-1.2,0-2.2,1-2.2,2.2c0,1.2,1,2.2,2.2,2.2s2.2-1,2.2-2.2
	C23.3,19.9,22.3,18.9,21.1,18.9z M21.1,0C9.4,0,0,9.4,0,21.1c0,11.6,9.4,21.1,21.1,21.1c11.6,0,21.1-9.4,21.1-21.1
	C42.1,9.4,32.7,0,21.1,0z M36.7,27.5c-0.4,1-2.7,0.9-3.3,1.8c-0.6,0.9,0.4,3-0.4,3.7c-0.2,0.2-0.6,0.3-1,0.3c-0.6,0-1.2-0.1-1.8-0.1
	c-0.4,0-0.7,0-0.9,0.2c-0.9,0.6-0.8,2.9-1.8,3.3c-0.1,0-0.2,0.1-0.3,0.1c-0.9,0-2.2-1.2-3.1-1.2c-0.1,0-0.1,0-0.2,0
	c-1,0.2-1.8,2.4-2.9,2.4c-1.1,0-1.9-2.2-2.9-2.4c-0.1,0-0.1,0-0.2,0c-0.9,0-2.2,1.2-3.1,1.2c-0.1,0-0.2,0-0.3-0.1
	c-1-0.4-0.9-2.7-1.8-3.3c-0.2-0.2-0.5-0.2-0.9-0.2c-0.6,0-1.2,0.1-1.8,0.1c-0.4,0-0.8-0.1-1-0.3c-0.7-0.7,0.2-2.9-0.4-3.7
	c-0.6-0.9-2.9-0.8-3.3-1.8C5,26.6,6.7,25,6.5,24c-0.2-1-2.4-1.8-2.4-2.9c0-1.1,2.2-1.9,2.4-2.9c0.2-1-1.5-2.6-1.1-3.6
	c0.4-1,2.7-0.9,3.3-1.8c0.6-0.9-0.4-3,0.4-3.7c0.2-0.2,0.6-0.3,1-0.3c0.6,0,1.2,0.1,1.8,0.1c0.4,0,0.7,0,0.9-0.2
	c0.9-0.6,0.8-2.9,1.8-3.3c0.1,0,0.2-0.1,0.3-0.1c0.9,0,2.2,1.2,3.1,1.2c0.1,0,0.1,0,0.2,0c1-0.2,1.8-2.4,2.9-2.4
	c1.1,0,1.9,2.2,2.9,2.4c0.1,0,0.1,0,0.2,0c0.9,0,2.2-1.2,3.1-1.2c0.1,0,0.2,0,0.3,0.1c1,0.4,0.9,2.7,1.8,3.3
	c0.2,0.2,0.5,0.2,0.9,0.2c0.6,0,1.2-0.1,1.8-0.1c0.4,0,0.8,0.1,1,0.3c0.7,0.7-0.2,2.9,0.4,3.7c0.6,0.9,2.9,0.8,3.3,1.8
	c0.4,0.9-1.3,2.5-1.1,3.6c0.2,1,2.4,1.8,2.4,2.9c0,1.1-2.2,1.9-2.4,2.9C35.4,25,37.1,26.6,36.7,27.5z"/>
<ellipse class="st1" cx="21.1" cy="46.7" rx="11.6" ry="1.9"/>
</svg>
