<?xml version="1.0" encoding="utf-8"?>
<!-- Generator: Adobe Illustrator 19.1.1, SVG Export Plug-In . SVG Version: 6.00 Build 0)  -->
<svg version="1.1" id="Слой_1" xmlns="http://www.w3.org/2000/svg" xmlns:xlink="http://www.w3.org/1999/xlink" x="0px" y="0px"
	 viewBox="0 0 54.3 42" style="enable-background:new 0 0 54.3 42;" xml:space="preserve">
<style type="text/css">
	.st0{fill:#0570FF;}
</style>
<g>
	<g>
		<path class="st0" d="M53.5,32.9v-9.5c0-1-0.7-1.9-1.7-2.1c0.1-0.3,0.2-0.7,0.2-1V5.6c0-2.1-1.7-3.7-3.7-3.7H35.4
			c-2,0-3.6,1.6-3.7,3.5l-3.9,15.9h-3.3c-1.2,0-2.1,0.9-2.1,2.1V32c-0.9,1.1-1.5,2.4-1.5,3.9c0,3.4,2.7,6.1,6.1,6.1
			c3.4,0,6.1-2.7,6.1-6.1c0-0.1,0-0.2,0-0.3h9.1c0,0.1,0,0.2,0,0.3c0,3.4,2.7,6.1,6.1,6.1c3.4,0,6.1-2.7,6.1-6.1
			C54.3,34.8,54,33.8,53.5,32.9z M41.4,5h6.9c0.4,0,0.7,0.3,0.7,0.7v6.9h-7.5V5z M34.8,5.8V5.6c0-0.4,0.3-0.7,0.7-0.7h2.9v7.6h-5.2
			L34.8,5.8z M32.4,15.6h16.5v4.7c0,0.4-0.3,0.7-0.7,0.7H31.1L32.4,15.6z M27,38.9c-1.7,0-3-1.3-3-3c0-1.7,1.3-3,3-3
			c1.7,0,3,1.3,3,3C30,37.6,28.7,38.9,27,38.9z M43.2,32.5H32.1c-1.1-1.6-2.9-2.7-5-2.7c-0.5,0-1,0.1-1.5,0.2v-5.7h25v5.9
			c-0.7-0.3-1.4-0.4-2.2-0.4C46.1,29.8,44.3,30.9,43.2,32.5z M48.2,38.9c-1.7,0-3-1.3-3-3c0-1.7,1.3-3,3-3c1.7,0,3,1.3,3,3
			C51.2,37.6,49.9,38.9,48.2,38.9z M16.7,37c0,0.3-0.3,0.6-0.6,0.6H0v3.1h16.1c2,0,3.7-1.7,3.7-3.7V0h-3.1V37z"/>
	</g>
</g>
</svg>
