<?xml version="1.0" encoding="utf-8"?>
<!-- Generator: Adobe Illustrator 19.1.1, SVG Export Plug-In . SVG Version: 6.00 Build 0)  -->
<svg version="1.1" id="Слой_1" xmlns="http://www.w3.org/2000/svg" xmlns:xlink="http://www.w3.org/1999/xlink" x="0px" y="0px"
	 viewBox="0 0 47.1 47.4" style="enable-background:new 0 0 47.1 47.4;" xml:space="preserve">
<style type="text/css">
	.st0{fill:#0570FF;}
</style>
<g>
	<g>
		<path class="st0" d="M28.6,26c3.5,0,6.4-2.9,6.4-6.4s-2.9-6.4-6.4-6.4H17.7v22.1h3.5v-4.4h7.1v-3.5h-7.1V26H28.6z M21.2,16.7h7.4
			c1.6,0,2.9,1.3,2.9,2.9c0,1.6-1.3,2.9-2.9,2.9h-7.4V16.7z M4.4,38.1l2.7,2.2l5.1-6.1L9.5,32L4.4,38.1z M7.8,20.8L0,22.2l0.6,3.4
			l7.8-1.4L7.8,20.8z M5.1,10.1l6.9,4l1.7-3l-6.9-4L5.1,10.1z M24.3,7.5L21.6,0l-3.3,1.2l2.7,7.5L24.3,7.5z M31.5,10.4l3.3,1.2
			l2.7-7.5l-3.3-1.2L31.5,10.4z M47.1,17.5l-1.7-3l-6.9,4l1.7,3L47.1,17.5z M38,32.6l7.8,1.4l0.6-3.4l-7.8-1.4L38,32.6z M29.2,39.7
			l5.1,6.1l2.7-2.2l-5.1-6.1L29.2,39.7z M18,47.4h3.5v-8H18V47.4z"/>
	</g>
</g>
</svg>
