<?xml version="1.0" encoding="utf-8"?>
<!-- Generator: Adobe Illustrator 19.1.1, SVG Export Plug-In . SVG Version: 6.00 Build 0)  -->
<svg version="1.1" id="Слой_1" xmlns="http://www.w3.org/2000/svg" xmlns:xlink="http://www.w3.org/1999/xlink" x="0px" y="0px"
	 viewBox="0 0 55.5 43.7" style="enable-background:new 0 0 55.5 43.7;" xml:space="preserve">
<style type="text/css">
	.st0{fill:#0570FF;}
</style>
<g>
	<g>
		<path class="st0" d="M50.6,0H4.9C2.2,0,0,2.2,0,4.9V30c0,2.7,2.2,4.9,4.9,4.9H31l3.7,7.4c0.4,0.7,1,1.3,1.9,1.4c0.1,0,0.3,0,0.4,0
			c0.7,0,1.4-0.3,1.8-0.8l6.9-8.1h4.8c2.7,0,4.9-2.2,4.9-4.9V4.9C55.5,2.2,53.3,0,50.6,0z M51.6,30c0,0.5-0.4,1-1,1H44l-6.6,7.7
			l-3.8-7.7H4.9c-0.5,0-1-0.4-1-1V4.9c0-0.5,0.4-1,1-1h45.7c0.5,0,1,0.4,1,1V30z M40.6,8.3c-1.4,0-2.2,0.5-2.8,0.8
			c-0.4,0.2-0.4,0.2-0.8,0.2c-0.4,0-0.4,0-0.8-0.2c-0.5-0.3-1.4-0.8-2.8-0.8c-1.4,0-2.2,0.5-2.8,0.8c-0.4,0.2-0.4,0.2-0.8,0.2
			c-0.4,0-0.4,0-0.8-0.2c-0.5-0.3-1.4-0.8-2.8-0.8c-1.4,0-2.2,0.5-2.8,0.8c-0.4,0.2-0.4,0.2-0.8,0.2c-0.4,0-0.4,0-0.8-0.2
			c-0.5-0.3-1.4-0.8-2.8-0.8c-1.4,0-2.2,0.5-2.8,0.8c-0.4,0.2-0.4,0.2-0.8,0.2c-0.4,0-0.4,0-0.8-0.2c-0.5-0.3-1.4-0.8-2.8-0.8v3.9
			c0.4,0,0.4,0,0.8,0.2c0.5,0.3,1.4,0.8,2.8,0.8c1.4,0,2.2-0.5,2.8-0.8c0.4-0.2,0.4-0.2,0.8-0.2c0.4,0,0.4,0,0.8,0.2
			c0.5,0.3,1.4,0.8,2.8,0.8c1.4,0,2.2-0.5,2.8-0.8c0.4-0.2,0.4-0.2,0.8-0.2c0.4,0,0.4,0,0.8,0.2c0.5,0.3,1.4,0.8,2.8,0.8
			c1.4,0,2.2-0.5,2.8-0.8c0.4-0.2,0.4-0.2,0.8-0.2c0.4,0,0.4,0,0.8,0.2c0.5,0.3,1.4,0.8,2.8,0.8c1.4,0,2.2-0.5,2.8-0.8
			c0.4-0.2,0.4-0.2,0.8-0.2c0.4,0,0.4,0,0.8,0.2c0.5,0.3,1.4,0.8,2.8,0.8V9.3c-0.4,0-0.4,0-0.8-0.2C42.9,8.8,42,8.3,40.6,8.3z
			 M37.1,15.6c-0.4,0-0.4,0-0.8-0.2c-0.5-0.3-1.4-0.8-2.8-0.8c-1.4,0-2.2,0.5-2.8,0.8c-0.4,0.2-0.4,0.2-0.8,0.2
			c-0.4,0-0.4,0-0.8-0.2c-0.5-0.3-1.4-0.8-2.8-0.8c-1.4,0-2.2,0.5-2.8,0.8c-0.4,0.2-0.4,0.2-0.8,0.2c-0.4,0-0.4,0-0.8-0.2
			c-0.5-0.3-1.4-0.8-2.8-0.8c-1.4,0-2.2,0.5-2.8,0.8c-0.4,0.2-0.4,0.2-0.8,0.2s-0.4,0-0.8-0.2c-0.5-0.3-1.4-0.8-2.8-0.8v3.9
			c0.4,0,0.4,0,0.8,0.2c0.5,0.3,1.4,0.8,2.8,0.8c1.4,0,2.2-0.5,2.8-0.8c0.4-0.2,0.4-0.2,0.8-0.2c0.4,0,0.4,0,0.8,0.2
			c0.5,0.3,1.4,0.8,2.8,0.8c1.4,0,2.2-0.5,2.8-0.8c0.4-0.2,0.4-0.2,0.8-0.2s0.4,0,0.8,0.2c0.5,0.3,1.4,0.8,2.8,0.8s2.2-0.5,2.8-0.8
			c0.4-0.2,0.4-0.2,0.8-0.2c0.4,0,0.4,0,0.8,0.2c0.5,0.3,1.4,0.8,2.8,0.8c1.4,0,2.2-0.5,2.8-0.8c0.4-0.2,0.4-0.2,0.8-0.2v-3.9
			c-1.4,0-2.2,0.5-2.8,0.8C37.5,15.5,37.4,15.6,37.1,15.6z M29.9,21.8c-0.4,0-0.4,0-0.8-0.2c-0.5-0.3-1.4-0.8-2.8-0.8
			c-1.4,0-2.2,0.5-2.8,0.8c-0.4,0.2-0.4,0.2-0.8,0.2c-0.4,0-0.4,0-0.8-0.2c-0.5-0.3-1.4-0.8-2.8-0.8c-1.4,0-2.2,0.5-2.8,0.8
			c-0.4,0.2-0.4,0.2-0.8,0.2c-0.4,0-0.4,0-0.8-0.2c-0.5-0.3-1.4-0.8-2.8-0.8v3.9c0.4,0,0.4,0,0.8,0.2c0.5,0.3,1.4,0.8,2.8,0.8
			c1.4,0,2.2-0.5,2.8-0.8c0.4-0.2,0.4-0.2,0.8-0.2c0.4,0,0.4,0,0.8,0.2c0.5,0.3,1.4,0.8,2.8,0.8c1.4,0,2.2-0.5,2.8-0.8
			c0.4-0.2,0.4-0.2,0.8-0.2c0.4,0,0.4,0,0.8,0.2c0.5,0.3,1.4,0.8,2.8,0.8c1.4,0,2.2-0.5,2.8-0.8c0.4-0.2,0.4-0.2,0.8-0.2v-3.9
			c-1.4,0-2.2,0.5-2.8,0.8C30.4,21.8,30.3,21.8,29.9,21.8z"/>
	</g>
</g>
</svg>
