<?xml version="1.0" encoding="utf-8"?>
<!-- Generator: Adobe Illustrator 19.1.1, SVG Export Plug-In . SVG Version: 6.00 Build 0)  -->
<svg version="1.1" id="Слой_1" xmlns="http://www.w3.org/2000/svg" xmlns:xlink="http://www.w3.org/1999/xlink" x="0px" y="0px"
	 viewBox="0 0 30 39" style="enable-background:new 0 0 30 39;" xml:space="preserve">
<style type="text/css">
	.st0{fill:#0570FF;}
</style>
<g>
	<g>
		<path class="st0" d="M20.2,0H9.8C4.4,0,0,4.4,0,9.9v19.2C0,34.6,4.4,39,9.8,39h10.3c5.4,0,9.8-4.4,9.8-9.9V9.9
			C30,4.4,25.6,0,20.2,0z M27.4,29.1c0,4-3.2,7.2-7.2,7.2H9.8c-4,0-7.2-3.2-7.2-7.2V9.9c0-4,3.2-7.2,7.2-7.2h10.3
			c4,0,7.2,3.2,7.2,7.2V29.1z M15,8.6c-0.7,0-1.3,0.6-1.3,1.3v8.7c0,0.7,0.6,1.3,1.3,1.3c0.7,0,1.3-0.6,1.3-1.3V10
			C16.3,9.2,15.7,8.6,15,8.6z"/>
	</g>
</g>
</svg>
