<?xml version="1.0" encoding="utf-8"?>
<!-- Generator: Adobe Illustrator 19.1.1, SVG Export Plug-In . SVG Version: 6.00 Build 0)  -->
<svg version="1.1" id="Слой_1" xmlns="http://www.w3.org/2000/svg" xmlns:xlink="http://www.w3.org/1999/xlink" x="0px" y="0px"
	 viewBox="0 0 51 50" style="enable-background:new 0 0 51 50;" xml:space="preserve">
<style type="text/css">
	.st0{fill:#0570FF;}
</style>
<g>
	<g>
		<path class="st0" d="M51,33.1L45.5,7.5c-0.1-0.6-0.6-1.2-1.3-1.3l-24-6.2c-0.5-0.1-1,0-1.4,0.2c-0.1,0.1-0.2,0.2-0.3,0.2l0,0
			L4.9,14.3c-0.2,0.2-0.4,0.6-0.5,0.9L0,39.3l0,0c0,0.2,0,0.4,0,0.6c0.1,0.5,0.4,0.9,0.8,1.2l13.4,8.7c0.3,0.2,0.6,0.3,0.9,0.3H36
			c0.4,0,0.7-0.1,1-0.3l6.7-4.8c0,0,0,0,0.1-0.1c0.1-0.1,0.1-0.1,0.2-0.2c0,0,0.1-0.1,0.1-0.1c0,0,0.1-0.1,0.1-0.1l6.6-10
			C51,34,51.1,33.6,51,33.1z M7.7,16.4L17,7L14,22.8L4.6,33.7L7.7,16.4z M35.4,46.5H15.6L4.4,39.2L15.8,26l23.9,17.5L35.4,46.5z
			 M42.3,41L17.5,22.9l3.7-19l21.2,5.4l5.1,23.8L42.3,41z"/>
	</g>
</g>
</svg>
