<?xml version="1.0" encoding="utf-8"?>
<!-- Generator: Adobe Illustrator 21.0.0, SVG Export Plug-In . SVG Version: 6.00 Build 0)  -->
<svg version="1.1" id="Layer_1" xmlns="http://www.w3.org/2000/svg" xmlns:xlink="http://www.w3.org/1999/xlink" x="0px" y="0px"
	 viewBox="0 0 1181 1018" style="enable-background:new 0 0 1181 1018;" xml:space="preserve">
<style type="text/css">
	.st0{fill:#FFF;}
</style>
<g>
	<g>
		<path class="st0" d="M0.5,0h127.3c18.7,1.2,38.1,4.2,54.1,14.6c12.8,8.1,22.1,21.1,26.7,35.4c5.5,16.7,6.4,34.6,4.8,52
			c-1.3,14.9-4.5,29.9-12.1,42.9c-7.6,13.4-19.7,24.1-33.8,30.2c-15.4,6.8-32.4,8.8-49,8.8c-18.9,0-37.8,0-56.8,0
			c0,30.5,0,61.1,0,91.6c-20.4,0-40.8,0-61.2,0L0.5,0L0.5,0z M62.4,47.8c0,28.1,0,56.2,0,84.2c15.7,0,31.4,0,47.1,0
			c9.8-0.1,20-0.8,29-5c7.4-3.2,13.3-9.4,16.2-16.9c3.5-8.9,4.1-18.7,3.6-28.2c-0.6-9.6-4-19.8-12.1-25.7
			c-9.6-7.1-22.2-8.1-33.7-8.4C95.8,47.7,79.1,47.8,62.4,47.8z"/>
	</g>
	<path class="st0" d="M235.1,0H439c0,17,0,34,0,51c-47.5,0-95.1,0-142.6,0c0,20.4,0,40.7,0,61.1c34,0,67.9,0,101.9,0
		c0,20.4,0,40.8,0,61.2c-34,0-67.9,0-101.9,0c0,34,0,68.1,0,102.1c-20.4,0-40.8,0-61.2,0C235.1,183.7,235.1,91.8,235.1,0z"/>
	<path class="st0" d="M459.4,0h204.1c0,17,0,34,0,51c-47.6,0-95.2,0-142.7,0c0,17,0,34,0,51c34,0,68,0,102,0c0,20.4,0,40.8,0,61.2
		c-34,0-68,0-102,0c0,17,0,34,0,51c47.6,0,95.1,0,142.7,0c0,20.4,0,40.8,0,61.3c-68,0-136.1,0-204.1,0
		C459.4,183.7,459.4,91.8,459.4,0z"/>
	<g>
		<path class="st0" d="M683.8,0h148.4c12.2,0.7,24.4,2.8,35.8,7.6c14.7,6,27.6,16.5,36.1,29.9c10.8,16.6,14.8,36.8,14.4,56.4
			c-0.2,18.4-3.5,37.6-14,53.1c-9.1,13.8-23.3,23.4-38.1,30.2c18.3,32.8,36.7,65.5,55,98.3c-24.8,0-49.7,0.1-74.5-0.1
			c-16.3-30.6-32.5-61.2-49.1-91.6c-17.6,0.2-35.1,0-52.6,0.1c0,30.5,0,61.1,0,91.6c-20.5-0.1-40.9,0.1-61.4-0.1
			C683.8,183.6,683.7,91.8,683.8,0z M745.1,51c0,27.3-0.1,54.5,0.1,81.8c22.7-0.1,45.4,0,68-0.1c10.7-0.4,22.2-1.3,31.2-7.8
			c7.8-5.6,11.2-15.3,12.2-24.4c1.2-10.3,1.2-21.4-3.7-30.9c-3.6-7.3-10.6-12.4-18.2-14.9c-12.6-4.4-26.2-3.6-39.4-3.7
			C778.7,51,761.9,51,745.1,51z"/>
	</g>
	<g>
		<path class="st0" d="M938.8,0h119.4c22.4,0.9,45.2,5.3,64.6,16.9c19.2,11.2,33.7,29.1,42.9,49.1c24,51,20.8,114.5-10.3,161.8
			c-12.5,18.8-31.4,33.1-52.9,40.2c-15.4,5.3-31.7,7.2-47.9,7.5c-38.5,0.2-77.1-0.2-115.6,0.2c-0.4-33.2,0-66.4-0.2-99.6
			C938.8,117.3,938.8,58.7,938.8,0z M1000,51c0,57.9,0,115.7,0,173.6c17.3,0,34.6,0.1,51.9-0.1c15.6-0.1,31.4-4.7,43.9-14.2
			c12.3-9.2,21.1-22.5,26.2-36.9c6.5-18,7.5-37.8,4.1-56.6c-2.8-15.3-9.2-30.1-19.6-41.7c-9.8-11.2-23.4-18.9-37.9-22
			c-8.5-2-17.3-2.1-26.1-2.1C1028.3,51,1014.2,51,1000,51z"/>
	</g>
	<g>
		<path class="st0" d="M0.5,299.4c393.7,0,787.3,0,1181,0V1018H0.5V299.4z M14.3,312.8c0,230.5,0,461.1,0,691.6
			c384.3,0,768.7,0,1153,0c0-230.5,0-461.1,0-691.6C782.9,312.7,398.6,312.8,14.3,312.8z"/>
	</g>
	<g>
		<path class="st0" d="M537,356.5c7.6-7.9,17.3-14.6,28.4-15.6c12-1,23.3,5.2,31.6,13.4c9.2,9.4,16.6,20.4,23.3,31.7
			c10.5,17.9,16.6,38.1,21.7,58.1c8.5,34,14.6,68.5,19.3,103.3c10-1.7,20-3.6,30.1-5.4c13.6-2.5,27.1-5.4,40.9-5.9
			c18.7-1.1,37.4,2.5,55.8,4.7c22.2-13,45.5-25.5,71.1-30.4c16.5-3.3,33.4-3.5,50.1-2.3c19.7,1.4,39.3,3.6,58.9,5.4
			c24.6,2.5,50,3.4,73.9-3.8c9.3-2.8,18.1-7,26.3-12.1c-0.9,20.7-6.8,41.2-17.4,59.1c-8.3,13.8-18.4,27-31.9,36.1
			c-22.8,15.5-51.3,20.6-78.4,18.4c-20.2-1.2-39.1-10.1-59.5-10.3c-6.6,0.2-13.1,1.5-19.5,3.2c7.4,12.1,10.6,26.1,13.6,39.7
			c3.9,17.1,6.8,34.5,12.4,51.2c2.4,7.4,5.1,15,10.6,20.7c7.1,7.8,17.5,11.8,27.8,13.3c10.3,1.4,20.7,1.8,31.1,2.1
			c1.7-0.2,2.3,1.7,3.2,2.7c27.9,37.9,55.9,75.8,83.9,113.7c10.3-3.6,20.6-7.3,30.8-10.9c13.3,26.8,26.6,53.5,39.8,80.3
			c-11,5.6-22,11.2-32.9,16.9c-8.6,4.3-17.1,9.6-26.8,11c-17.3,3.1-34.7-3.5-48.9-13.2c-13.4-9-24.1-21.3-35.4-32.7
			c-23.7-24.3-47.3-48.7-71.1-72.9c-48.4,0.5-97.3-9-140.5-31.3c-24.5-12.6-45.8-31.2-62.6-53c-11.6,3.3-23,7.2-34.5,10.6
			c-4.6,32.3-9.9,64.6-16.9,96.5c-5.2,23.3-11.2,46.6-21.9,68.1c-7.8,16.1-17,31.9-30.1,44.3c-7.4,7-17,12.3-27.4,12.8
			c-9.1,0.5-17.7-4-24.5-9.8c-13.6-11.6-23.2-27-31-42.9c-6.5-12.9-11.3-26.5-14.8-40.5c-8.4-34.3-13.4-69.2-17.6-104.2
			c-22-2.1-43.9-5.9-65.2-12.2c-1.7-0.7-3.5,0.3-5.1,0.6c-50.3,13.7-100.7,27.3-151,41c-1.9,0.5-3.3,2-4.9,3.1
			c-28.4,21.7-56.8,43.3-85.2,65c0,8.6,0,17.2,0,25.8c-32.4,12.5-64.7,25.1-97,37.6c2.8-31.3,5.5-62.5,8.3-93.8
			c0-1.8,1.9-2.7,2.9-3.9c36.1-34.6,72.2-69.2,108.3-103.8c1.5-1.4,3.4-1.9,5.2-2.8c38.2-17.1,76.5-34.3,114.7-51.3
			c1.7-0.9,4.1-1.2,4.6-3.3c5.8-13.5,11.9-26.9,17.5-40.5c-17.2-19.1-34.1-38.5-51.2-57.6c-22,7.9-44,15.9-66,23.8
			c-2,0.8-4.6,1-5.4,3.3c-6.8,12-15.4,23.9-28.2,30c-13.9,6.6-30.6,3.7-43.8-3.4c-16.5-8.9-27.7-24.3-38.2-39.3
			c39.6-77.5,79.4-155,119-232.6c0.6-0.6,0.7-2.8,1.9-2.1c15.3,22.3,30.5,44.7,45.8,67c23.8-2.5,48.1,0.7,70.7,8.5
			c34.1,11.4,65.5,29.7,96.1,48.2c15.2,9.1,30.3,18.4,45.3,27.8c4.4-24,9.7-47.9,16.2-71.4c5-17.5,10.3-35,19-51
			C519.7,377.5,527.7,366.4,537,356.5z M552.3,384.8c-6.5,6.7-11.7,14.6-16.3,22.7c-8.4,15-12.6,31.9-16.6,48.5
			c-5.7,24.8-10.1,49.8-13.4,75c14.2,9.4,29.6,17.8,46.6,20.5c26.5,4.2,53.5,2.4,80.1,0.8c-2.3-19.5-5-38.9-8.3-58.3
			c-3.4-19.9-6.9-39.8-13-59c-4.6-14-10.8-27.6-19-39.9c-5.1-7.1-11-14.7-19.9-17.1C565.2,375.9,557.5,379.6,552.3,384.8z
			 M221.1,422.6c-28.5,55.8-57,111.7-85.5,167.5c5,7.5,10.9,15.4,19.8,18.4c5.3,1.9,11.8,1.6,15.9-2.6c5.7-5.9,6.9-14.5,7.4-22.4
			c38.4-14.3,76.7-28.8,115.1-43.2c26.1,29.5,52.1,59.1,78.2,88.7c-10,24.6-19.9,49.2-29.9,73.8c-43.3,19-86.6,38-130,57
			c-2.2,1-4.7,1.7-6.5,3.5c-33.6,31.4-67.2,62.8-100.8,94.2c0,10.5,0,21,0,31.5c9-3.1,18-6.1,27-9.2c0-6.1,0-12.3,0-18.4
			c36-27.6,71.8-55.5,107.9-82.9c59.2-16.2,118.4-32.1,177.7-48.1c16,6.8,32.9,11.3,50.1,13.8c22.9,3.1,46,3.9,69,2
			c33.4-2.7,66.1-10.1,98.7-17.5c2.5-48.7,2.4-97.5-0.1-146.1c-23.2,2-46.6,2.6-69.8,0.7c-19-1.5-37.8-6.1-55.3-13.7
			c-13.5-5.5-25.3-13.9-37.6-21.5c-19.3-12.1-38.6-24.1-58-36c-30.3-18.5-61.5-36.2-95.6-46.6c-22.7-7-46.9-7.6-70.3-4
			C239.4,448.5,230.3,435.5,221.1,422.6z M878.4,539.1c-12.9,1-25.4,4.6-37.4,9.4c-16.1,6.3-31.6,14-46.6,22.4
			c-23-4.4-46.7-8-70.1-4.5c-20.2,3.1-40.2,7.4-60.2,11.4c2.5,46.4,3.2,92.8,1.3,139.2c14.6-5.1,29.1-10.3,43.7-15.3
			c8.6,11.8,17.9,23.1,28,33.7c13.3,13.8,29,25.3,46.4,33.6c19.1,9,39.2,15.8,59.9,20.2c24.2,5,48.9,6.8,73.5,7.4
			c29.9,30.8,59.8,61.6,89.6,92.4c9.7,10.6,20.8,21.1,35.1,24.9c5,1.3,10.6,1.3,15.2-1.3c5.9-3.2,11.8-6.5,17.6-9.7
			c-5.5-10.5-11-21-16.6-31.5c-9.5,3.2-19,6.4-28.5,9.6c-28.7-39.6-57.1-79.4-85.8-119c-18.8-3.1-38.9-3.5-56.1-12.7
			c-13.6-7.2-23.9-19.8-29.1-34.2c-4.9-14.1-6.6-29.1-8.7-43.8c-3-17.7-6.6-35.8-15.9-51.4c-6.6-11.1-14.4-21.3-22.9-30.9
			c15.9-8.9,32.4-17.7,50.6-20.2c12.5-1.3,24.9,1.2,37.2,3c13.3,2,26.3,6,39.8,7c18.5,1.8,38,0.6,54.7-8
			c12.6-6.4,22.5-17.1,29.3-29.4c-11,3.1-22.4,5-33.9,4.6c-19.1-0.5-38.1-2.9-57.1-5.5C913.8,538.4,896,537.7,878.4,539.1z
			 M567.6,774.8c-20.3,3-40.8,3.7-61.3,3.1c3.4,27.7,7.8,55.4,13.9,82.6c4,17.2,8.7,34.7,18,49.9c4.8,7.9,10,15.9,17,22
			c6.4,5.5,16.3,6.5,23.3,1.7c8.4-5.5,14.2-14.2,19.1-22.8c8.8-15.7,15-32.7,18.9-50.3c7.5-32.9,12.3-66.4,16.5-99.9
			C611.4,766.6,589.7,771.7,567.6,774.8z"/>
	</g>
	<path class="st0" d="M213.9,475.6c10.6-2.2,21.5,5.2,24.3,15.4c2.7,9.7-2.7,20.6-11.8,24.7c-7.3,3.5-16.5,2.1-22.5-3.2
		c-5.9-4.9-8.8-13.1-7.1-20.6C198.4,483.7,205.6,477,213.9,475.6z"/>
</g>
</svg>
